<mxfile host="Electron" agent="Mozilla/5.0 (Windows NT 10.0; Win64; x64) AppleWebKit/537.36 (KHTML, like Gecko) draw.io/21.2.1 Chrome/112.0.5615.87 Electron/24.1.2 Safari/537.36" modified="2025-04-24T17:31:49.351Z" version="21.2.1" etag="-IlX-TAkN4LFMFDGyOUQ" type="device">
  <diagram name="Página-1" id="Y2vpV-kms1eNKkNvRC0t">
    <mxGraphModel dx="1709" dy="943" grid="0" gridSize="10" guides="1" tooltips="1" connect="1" arrows="1" fold="1" page="0" pageScale="1" pageWidth="827" pageHeight="1169" math="0" shadow="0">
      <root>
        <mxCell id="0" />
        <mxCell id="1" parent="0" />
        <mxCell id="LMxS4yeM4KThAUbK3Tsi-1" value="" style="rounded=0;whiteSpace=wrap;html=1;movable=0;resizable=0;rotatable=0;deletable=0;editable=0;locked=1;connectable=0;" parent="1" vertex="1">
          <mxGeometry x="-332" y="-118" width="962" height="735" as="geometry" />
        </mxCell>
        <mxCell id="LMxS4yeM4KThAUbK3Tsi-4" value="Base de datos Asistencia" style="shape=umlActor;verticalLabelPosition=bottom;verticalAlign=top;html=1;outlineConnect=0;" parent="1" vertex="1">
          <mxGeometry x="714" y="-6" width="30" height="60" as="geometry" />
        </mxCell>
        <mxCell id="FxrmhQ0mo59UPZG1TpkR-2" style="edgeStyle=orthogonalEdgeStyle;rounded=0;orthogonalLoop=1;jettySize=auto;html=1;exitX=0.5;exitY=0.5;exitDx=0;exitDy=0;exitPerimeter=0;entryX=0;entryY=0.5;entryDx=0;entryDy=0;" edge="1" parent="1" source="LMxS4yeM4KThAUbK3Tsi-5" target="LMxS4yeM4KThAUbK3Tsi-8">
          <mxGeometry relative="1" as="geometry" />
        </mxCell>
        <mxCell id="FxrmhQ0mo59UPZG1TpkR-3" style="edgeStyle=orthogonalEdgeStyle;rounded=0;orthogonalLoop=1;jettySize=auto;html=1;entryX=0;entryY=0.5;entryDx=0;entryDy=0;" edge="1" parent="1" source="LMxS4yeM4KThAUbK3Tsi-5" target="LMxS4yeM4KThAUbK3Tsi-23">
          <mxGeometry relative="1" as="geometry" />
        </mxCell>
        <mxCell id="FxrmhQ0mo59UPZG1TpkR-4" style="edgeStyle=orthogonalEdgeStyle;rounded=0;orthogonalLoop=1;jettySize=auto;html=1;entryX=0;entryY=0.5;entryDx=0;entryDy=0;" edge="1" parent="1" source="LMxS4yeM4KThAUbK3Tsi-5" target="LMxS4yeM4KThAUbK3Tsi-6">
          <mxGeometry relative="1" as="geometry" />
        </mxCell>
        <mxCell id="LMxS4yeM4KThAUbK3Tsi-5" value="Gerebte" style="shape=umlActor;verticalLabelPosition=bottom;verticalAlign=top;html=1;outlineConnect=0;" parent="1" vertex="1">
          <mxGeometry x="-541" y="172" width="30" height="60" as="geometry" />
        </mxCell>
        <mxCell id="LMxS4yeM4KThAUbK3Tsi-6" value="Registrar Asistencia de empleado" style="ellipse;whiteSpace=wrap;html=1;" parent="1" vertex="1">
          <mxGeometry x="-218" y="-15" width="120" height="80" as="geometry" />
        </mxCell>
        <mxCell id="LMxS4yeM4KThAUbK3Tsi-7" value="Informe del inventario" style="ellipse;whiteSpace=wrap;html=1;" parent="1" vertex="1">
          <mxGeometry x="253" y="232" width="120" height="80" as="geometry" />
        </mxCell>
        <mxCell id="LMxS4yeM4KThAUbK3Tsi-8" value="Registrar auto en el autolavado" style="ellipse;whiteSpace=wrap;html=1;" parent="1" vertex="1">
          <mxGeometry x="-283" y="475" width="120" height="80" as="geometry" />
        </mxCell>
        <mxCell id="LMxS4yeM4KThAUbK3Tsi-9" value="Ingresar datos y método de pago" style="ellipse;whiteSpace=wrap;html=1;" parent="1" vertex="1">
          <mxGeometry x="41" y="395" width="120" height="80" as="geometry" />
        </mxCell>
        <mxCell id="LMxS4yeM4KThAUbK3Tsi-10" value="Reservar" style="ellipse;whiteSpace=wrap;html=1;" parent="1" vertex="1">
          <mxGeometry x="-108" y="475" width="120" height="80" as="geometry" />
        </mxCell>
        <mxCell id="LMxS4yeM4KThAUbK3Tsi-12" style="edgeStyle=none;curved=1;rounded=0;orthogonalLoop=1;jettySize=auto;html=1;exitX=0;exitY=0.3333333333333333;exitDx=0;exitDy=0;exitPerimeter=0;fontSize=12;startSize=8;endSize=8;" parent="1" edge="1">
          <mxGeometry relative="1" as="geometry">
            <mxPoint x="745" y="573" as="sourcePoint" />
            <mxPoint x="745" y="573" as="targetPoint" />
          </mxGeometry>
        </mxCell>
        <mxCell id="LMxS4yeM4KThAUbK3Tsi-13" value="Actualización del inventario" style="ellipse;whiteSpace=wrap;html=1;" parent="1" vertex="1">
          <mxGeometry x="63" y="232" width="120" height="80" as="geometry" />
        </mxCell>
        <mxCell id="LMxS4yeM4KThAUbK3Tsi-15" value="" style="endArrow=classic;html=1;rounded=0;fontSize=12;startSize=8;endSize=8;curved=1;exitX=0;exitY=0.5;exitDx=0;exitDy=0;entryX=1;entryY=0.5;entryDx=0;entryDy=0;" parent="1" source="LMxS4yeM4KThAUbK3Tsi-10" target="LMxS4yeM4KThAUbK3Tsi-8" edge="1">
          <mxGeometry width="50" height="50" relative="1" as="geometry">
            <mxPoint x="-61" y="649" as="sourcePoint" />
            <mxPoint x="-11" y="599" as="targetPoint" />
          </mxGeometry>
        </mxCell>
        <mxCell id="LMxS4yeM4KThAUbK3Tsi-22" value="" style="endArrow=classic;html=1;rounded=0;fontSize=12;startSize=8;endSize=8;curved=1;exitX=1;exitY=0.5;exitDx=0;exitDy=0;entryX=0;entryY=0.5;entryDx=0;entryDy=0;" parent="1" source="LMxS4yeM4KThAUbK3Tsi-13" target="LMxS4yeM4KThAUbK3Tsi-7" edge="1">
          <mxGeometry width="50" height="50" relative="1" as="geometry">
            <mxPoint x="78" y="397" as="sourcePoint" />
            <mxPoint x="128" y="347" as="targetPoint" />
          </mxGeometry>
        </mxCell>
        <mxCell id="LMxS4yeM4KThAUbK3Tsi-23" value="Productos disponibles del inventario" style="ellipse;whiteSpace=wrap;html=1;" parent="1" vertex="1">
          <mxGeometry x="-313" y="232" width="120" height="80" as="geometry" />
        </mxCell>
        <mxCell id="LMxS4yeM4KThAUbK3Tsi-24" value="Informe del día del empleado" style="ellipse;whiteSpace=wrap;html=1;" parent="1" vertex="1">
          <mxGeometry x="329" y="-16" width="120" height="80" as="geometry" />
        </mxCell>
        <mxCell id="LMxS4yeM4KThAUbK3Tsi-25" value="Informe de autos retirados y registrados" style="ellipse;whiteSpace=wrap;html=1;" parent="1" vertex="1">
          <mxGeometry x="403" y="475" width="120" height="80" as="geometry" />
        </mxCell>
        <mxCell id="LMxS4yeM4KThAUbK3Tsi-27" value="Cantidad de insumos de productos por auto" style="ellipse;whiteSpace=wrap;html=1;" parent="1" vertex="1">
          <mxGeometry x="-127" y="306" width="120" height="80" as="geometry" />
        </mxCell>
        <mxCell id="LMxS4yeM4KThAUbK3Tsi-28" value="Agregar productos al inventario" style="ellipse;whiteSpace=wrap;html=1;" parent="1" vertex="1">
          <mxGeometry x="-127" y="174" width="120" height="80" as="geometry" />
        </mxCell>
        <mxCell id="LMxS4yeM4KThAUbK3Tsi-30" value="" style="endArrow=classic;html=1;rounded=0;fontSize=12;startSize=8;endSize=8;curved=1;exitX=1;exitY=0.5;exitDx=0;exitDy=0;entryX=0;entryY=0.5;entryDx=0;entryDy=0;" parent="1" source="LMxS4yeM4KThAUbK3Tsi-23" target="LMxS4yeM4KThAUbK3Tsi-27" edge="1">
          <mxGeometry width="50" height="50" relative="1" as="geometry">
            <mxPoint x="-194" y="395" as="sourcePoint" />
            <mxPoint x="-144" y="345" as="targetPoint" />
          </mxGeometry>
        </mxCell>
        <mxCell id="LMxS4yeM4KThAUbK3Tsi-31" value="" style="endArrow=classic;html=1;rounded=0;fontSize=12;startSize=8;endSize=8;curved=1;exitX=1;exitY=0.5;exitDx=0;exitDy=0;entryX=0;entryY=0.5;entryDx=0;entryDy=0;" parent="1" source="LMxS4yeM4KThAUbK3Tsi-27" target="LMxS4yeM4KThAUbK3Tsi-13" edge="1">
          <mxGeometry width="50" height="50" relative="1" as="geometry">
            <mxPoint x="21" y="354" as="sourcePoint" />
            <mxPoint x="71" y="304" as="targetPoint" />
          </mxGeometry>
        </mxCell>
        <mxCell id="LMxS4yeM4KThAUbK3Tsi-32" value="" style="endArrow=classic;html=1;rounded=0;fontSize=12;startSize=8;endSize=8;curved=1;exitX=1;exitY=0.5;exitDx=0;exitDy=0;entryX=0;entryY=0.5;entryDx=0;entryDy=0;" parent="1" source="LMxS4yeM4KThAUbK3Tsi-28" target="LMxS4yeM4KThAUbK3Tsi-13" edge="1">
          <mxGeometry width="50" height="50" relative="1" as="geometry">
            <mxPoint x="-294" y="448" as="sourcePoint" />
            <mxPoint x="49" y="261" as="targetPoint" />
          </mxGeometry>
        </mxCell>
        <mxCell id="LMxS4yeM4KThAUbK3Tsi-33" value="Retirar en la fecha final" style="ellipse;whiteSpace=wrap;html=1;" parent="1" vertex="1">
          <mxGeometry x="220" y="475" width="120" height="80" as="geometry" />
        </mxCell>
        <mxCell id="LMxS4yeM4KThAUbK3Tsi-35" value="" style="endArrow=classic;html=1;rounded=0;fontSize=12;startSize=8;endSize=8;curved=1;exitX=1;exitY=0.5;exitDx=0;exitDy=0;entryX=0;entryY=0.5;entryDx=0;entryDy=0;" parent="1" source="LMxS4yeM4KThAUbK3Tsi-33" target="LMxS4yeM4KThAUbK3Tsi-25" edge="1">
          <mxGeometry width="50" height="50" relative="1" as="geometry">
            <mxPoint x="356" y="619" as="sourcePoint" />
            <mxPoint x="406" y="569" as="targetPoint" />
          </mxGeometry>
        </mxCell>
        <mxCell id="LMxS4yeM4KThAUbK3Tsi-39" value="Estado de la asistencia" style="ellipse;whiteSpace=wrap;html=1;" parent="1" vertex="1">
          <mxGeometry x="105" y="-89" width="120" height="80" as="geometry" />
        </mxCell>
        <mxCell id="LMxS4yeM4KThAUbK3Tsi-40" value="Nombre del empleado" style="ellipse;whiteSpace=wrap;html=1;" parent="1" vertex="1">
          <mxGeometry x="105" y="57" width="120" height="80" as="geometry" />
        </mxCell>
        <mxCell id="LMxS4yeM4KThAUbK3Tsi-41" value="" style="endArrow=classic;html=1;rounded=0;fontSize=12;startSize=8;endSize=8;curved=1;exitX=1;exitY=0.5;exitDx=0;exitDy=0;entryX=0;entryY=0.5;entryDx=0;entryDy=0;" parent="1" source="LMxS4yeM4KThAUbK3Tsi-6" target="LMxS4yeM4KThAUbK3Tsi-39" edge="1">
          <mxGeometry width="50" height="50" relative="1" as="geometry">
            <mxPoint x="-107" y="126" as="sourcePoint" />
            <mxPoint x="-57" y="76" as="targetPoint" />
          </mxGeometry>
        </mxCell>
        <mxCell id="LMxS4yeM4KThAUbK3Tsi-42" value="" style="endArrow=classic;html=1;rounded=0;fontSize=12;startSize=8;endSize=8;curved=1;exitX=1;exitY=0.5;exitDx=0;exitDy=0;entryX=0;entryY=0.5;entryDx=0;entryDy=0;" parent="1" source="LMxS4yeM4KThAUbK3Tsi-6" target="LMxS4yeM4KThAUbK3Tsi-40" edge="1">
          <mxGeometry width="50" height="50" relative="1" as="geometry">
            <mxPoint x="13" y="167" as="sourcePoint" />
            <mxPoint x="63" y="117" as="targetPoint" />
          </mxGeometry>
        </mxCell>
        <mxCell id="LMxS4yeM4KThAUbK3Tsi-43" value="" style="endArrow=classic;html=1;rounded=0;fontSize=12;startSize=8;endSize=8;curved=1;exitX=1;exitY=0.5;exitDx=0;exitDy=0;entryX=0;entryY=0.5;entryDx=0;entryDy=0;" parent="1" source="LMxS4yeM4KThAUbK3Tsi-40" target="LMxS4yeM4KThAUbK3Tsi-24" edge="1">
          <mxGeometry width="50" height="50" relative="1" as="geometry">
            <mxPoint x="383" y="187" as="sourcePoint" />
            <mxPoint x="433" y="137" as="targetPoint" />
          </mxGeometry>
        </mxCell>
        <mxCell id="LMxS4yeM4KThAUbK3Tsi-44" value="" style="endArrow=classic;html=1;rounded=0;fontSize=12;startSize=8;endSize=8;curved=1;exitX=1;exitY=0.5;exitDx=0;exitDy=0;entryX=0;entryY=0.5;entryDx=0;entryDy=0;" parent="1" source="LMxS4yeM4KThAUbK3Tsi-39" target="LMxS4yeM4KThAUbK3Tsi-24" edge="1">
          <mxGeometry width="50" height="50" relative="1" as="geometry">
            <mxPoint x="471" y="186" as="sourcePoint" />
            <mxPoint x="521" y="136" as="targetPoint" />
          </mxGeometry>
        </mxCell>
        <mxCell id="LMxS4yeM4KThAUbK3Tsi-45" value="Include" style="text;html=1;align=center;verticalAlign=middle;whiteSpace=wrap;rounded=0;rotation=-30;" parent="1" vertex="1">
          <mxGeometry x="-3" y="-53" width="60" height="30" as="geometry" />
        </mxCell>
        <mxCell id="LMxS4yeM4KThAUbK3Tsi-46" value="Include" style="text;html=1;align=center;verticalAlign=middle;whiteSpace=wrap;rounded=0;rotation=30;" parent="1" vertex="1">
          <mxGeometry x="-14" y="82" width="60" height="30" as="geometry" />
        </mxCell>
        <mxCell id="LMxS4yeM4KThAUbK3Tsi-47" value="Extend" style="text;html=1;align=center;verticalAlign=middle;whiteSpace=wrap;rounded=0;rotation=-45;" parent="1" vertex="1">
          <mxGeometry x="-199" y="210" width="60" height="30" as="geometry" />
        </mxCell>
        <mxCell id="LMxS4yeM4KThAUbK3Tsi-48" value="Include" style="text;html=1;align=center;verticalAlign=middle;whiteSpace=wrap;rounded=0;rotation=45;" parent="1" vertex="1">
          <mxGeometry x="-210.88" y="312.88" width="60" height="24" as="geometry" />
        </mxCell>
        <mxCell id="LMxS4yeM4KThAUbK3Tsi-52" value="" style="endArrow=classic;html=1;rounded=0;fontSize=12;startSize=8;endSize=8;curved=1;exitX=1;exitY=0.5;exitDx=0;exitDy=0;entryX=0.5;entryY=0.5;entryDx=0;entryDy=0;entryPerimeter=0;" parent="1" source="LMxS4yeM4KThAUbK3Tsi-7" target="FxrmhQ0mo59UPZG1TpkR-5" edge="1">
          <mxGeometry width="50" height="50" relative="1" as="geometry">
            <mxPoint x="619" y="323" as="sourcePoint" />
            <mxPoint x="709" y="351" as="targetPoint" />
          </mxGeometry>
        </mxCell>
        <mxCell id="LMxS4yeM4KThAUbK3Tsi-53" value="" style="endArrow=classic;html=1;rounded=0;fontSize=12;startSize=8;endSize=8;curved=1;exitX=1;exitY=0.5;exitDx=0;exitDy=0;entryX=0.5;entryY=0.5;entryDx=0;entryDy=0;entryPerimeter=0;" parent="1" source="LMxS4yeM4KThAUbK3Tsi-25" target="FxrmhQ0mo59UPZG1TpkR-6" edge="1">
          <mxGeometry width="50" height="50" relative="1" as="geometry">
            <mxPoint x="524" y="493" as="sourcePoint" />
            <mxPoint x="574" y="443" as="targetPoint" />
          </mxGeometry>
        </mxCell>
        <mxCell id="LMxS4yeM4KThAUbK3Tsi-55" value="" style="endArrow=classic;html=1;rounded=0;fontSize=12;startSize=8;endSize=8;curved=1;exitX=1;exitY=0.5;exitDx=0;exitDy=0;entryX=0.5;entryY=0.5;entryDx=0;entryDy=0;entryPerimeter=0;" parent="1" source="LMxS4yeM4KThAUbK3Tsi-24" target="LMxS4yeM4KThAUbK3Tsi-4" edge="1">
          <mxGeometry width="50" height="50" relative="1" as="geometry">
            <mxPoint x="492" y="112" as="sourcePoint" />
            <mxPoint x="752.5" y="559.0000000000002" as="targetPoint" />
          </mxGeometry>
        </mxCell>
        <mxCell id="LMxS4yeM4KThAUbK3Tsi-59" value="" style="endArrow=classic;html=1;rounded=0;fontSize=12;startSize=8;endSize=8;curved=1;exitX=1;exitY=0.5;exitDx=0;exitDy=0;entryX=0;entryY=0.5;entryDx=0;entryDy=0;" parent="1" source="LMxS4yeM4KThAUbK3Tsi-10" target="LMxS4yeM4KThAUbK3Tsi-33" edge="1">
          <mxGeometry width="50" height="50" relative="1" as="geometry">
            <mxPoint x="138" y="532" as="sourcePoint" />
            <mxPoint x="188" y="482" as="targetPoint" />
          </mxGeometry>
        </mxCell>
        <mxCell id="FxrmhQ0mo59UPZG1TpkR-1" value="" style="endArrow=classic;html=1;rounded=0;exitX=0;exitY=0.5;exitDx=0;exitDy=0;entryX=1;entryY=0.5;entryDx=0;entryDy=0;" edge="1" parent="1" source="LMxS4yeM4KThAUbK3Tsi-28" target="LMxS4yeM4KThAUbK3Tsi-23">
          <mxGeometry width="50" height="50" relative="1" as="geometry">
            <mxPoint x="-264" y="442" as="sourcePoint" />
            <mxPoint x="-214" y="392" as="targetPoint" />
          </mxGeometry>
        </mxCell>
        <mxCell id="FxrmhQ0mo59UPZG1TpkR-5" value="Base de datos Inventario" style="shape=umlActor;verticalLabelPosition=bottom;verticalAlign=top;html=1;outlineConnect=0;" vertex="1" parent="1">
          <mxGeometry x="720" y="232" width="30" height="60" as="geometry" />
        </mxCell>
        <mxCell id="FxrmhQ0mo59UPZG1TpkR-6" value="Base de datos RegistroAutos" style="shape=umlActor;verticalLabelPosition=bottom;verticalAlign=top;html=1;outlineConnect=0;" vertex="1" parent="1">
          <mxGeometry x="733" y="485" width="30" height="60" as="geometry" />
        </mxCell>
      </root>
    </mxGraphModel>
  </diagram>
</mxfile>
